<svg width="75" height="75" viewBox="0 0 75 75" fill="none" xmlns="http://www.w3.org/2000/svg">
<rect width="75" height="75" rx="10" fill="white"/>
<rect width="38.434" height="1.73133" rx="0.865664" transform="matrix(0.947566 -0.319561 0.202695 0.979242 5 31.4248)" fill="#2CA880"/>
<rect width="46.2254" height="1.72971" rx="0.864855" transform="matrix(-0.943828 -0.330437 -0.210089 0.977682 71 32.2744)" fill="#121212"/>
<rect width="38.826" height="1.74429" rx="0.872146" transform="matrix(1 0 0 -1 16.3623 58)" fill="#121212"/>
<path d="M24.7624 36.7295C24.7624 37.2095 24.8958 37.6095 25.1624 37.9295C25.4424 38.2361 25.8091 38.4961 26.2624 38.7095C26.7291 38.9095 27.2291 39.1028 27.7624 39.2895C28.3091 39.4628 28.8491 39.6561 29.3824 39.8695C29.9291 40.0695 30.4291 40.3228 30.8824 40.6295C31.3491 40.9361 31.7158 41.3295 31.9824 41.8095C32.2624 42.2761 32.4024 42.8628 32.4024 43.5695C32.4024 44.3828 32.2091 45.0761 31.8224 45.6495C31.4358 46.2095 30.9091 46.6428 30.2424 46.9495C29.5891 47.2428 28.8358 47.3895 27.9824 47.3895C27.3291 47.3895 26.7224 47.2961 26.1624 47.1095C25.6024 46.9228 25.0758 46.6761 24.5824 46.3695L24.1624 47.1695H23.4624C23.4358 46.7161 23.3824 46.2428 23.3024 45.7495C23.2224 45.2428 23.1358 44.7495 23.0424 44.2695C22.9491 43.7761 22.8558 43.3228 22.7624 42.9095L23.4224 42.7095C23.8358 43.6961 24.3158 44.4761 24.8624 45.0495C25.4224 45.6095 25.9824 46.0095 26.5424 46.2495C27.1158 46.4761 27.6291 46.5895 28.0824 46.5895C28.4958 46.5895 28.9224 46.5095 29.3624 46.3495C29.8158 46.1761 30.2024 45.9095 30.5224 45.5495C30.8424 45.1895 31.0024 44.7228 31.0024 44.1495C31.0024 43.6161 30.8624 43.1761 30.5824 42.8295C30.3158 42.4828 29.9491 42.1895 29.4824 41.9495C29.0291 41.7095 28.5291 41.4961 27.9824 41.3095C27.4491 41.1095 26.9091 40.9095 26.3624 40.7095C25.8291 40.4961 25.3291 40.2495 24.8624 39.9695C24.4091 39.6761 24.0424 39.3161 23.7624 38.8895C23.4958 38.4495 23.3624 37.9095 23.3624 37.2695C23.3624 36.4961 23.5558 35.8361 23.9424 35.2895C24.3291 34.7428 24.8424 34.3228 25.4824 34.0295C26.1358 33.7361 26.8491 33.5895 27.6224 33.5895C28.2091 33.5895 28.7291 33.6828 29.1824 33.8695C29.6491 34.0428 30.1091 34.2895 30.5624 34.6095L30.9824 33.7895H31.6824C31.7358 34.4695 31.8158 35.1295 31.9224 35.7695C32.0291 36.4095 32.1491 37.0428 32.2824 37.6695L31.6224 37.8695C31.2891 36.8828 30.8758 36.1428 30.3824 35.6495C29.9024 35.1561 29.4091 34.8228 28.9024 34.6495C28.3958 34.4761 27.9424 34.3895 27.5424 34.3895C26.7291 34.3895 26.0624 34.6095 25.5424 35.0495C25.0224 35.4895 24.7624 36.0495 24.7624 36.7295ZM42.9937 47.1895V46.4895H44.5937L44.6937 46.3895V34.5895L44.5937 34.4895H42.9937V33.7895H48.1937V34.4895H46.5937L46.4937 34.5895V46.3895L46.5937 46.4895H48.1937V47.1895H42.9937ZM34.5937 47.1895V46.4895H36.1937L36.2937 46.3895V34.5895L36.1937 34.4895H34.5937V33.7895H39.7937V34.4895H38.1937L38.0937 34.5895V46.3895L38.1937 46.4895H39.7937V47.1895H34.5937ZM37.6937 40.5895V39.8895H45.0937V40.5895H37.6937Z" fill="black"/>
</svg>
