<svg width="151" height="75" viewBox="0 0 151 75" fill="none" xmlns="http://www.w3.org/2000/svg">
<rect width="81.5438" height="2.9881" rx="1.49405" transform="matrix(0.966479 -0.256747 0.254147 0.967165 8.17578 24.5886)" fill="#009E60"/>
<rect width="97.9374" height="2.98803" rx="1.49401" transform="matrix(-0.964013 -0.265857 -0.263178 0.964747 151 26.0374)" fill="white"/>
<rect width="84.0196" height="2.97335" rx="1.48668" transform="matrix(1 0 0 -1 33.2252 75)" fill="white"/>
<path d="M7.07945 40.4475C7.07945 41.16 7.27737 41.7538 7.67321 42.2288C8.08885 42.684 8.63313 43.0699 9.30606 43.3866C9.99878 43.6835 10.741 43.9705 11.5327 44.2476C12.3441 44.5049 13.1457 44.7919 13.9374 45.1085C14.7489 45.4054 15.4911 45.7815 16.164 46.2367C16.8567 46.6919 17.401 47.2758 17.7968 47.9883C18.2125 48.681 18.4203 49.5518 18.4203 50.6008C18.4203 51.8081 18.1333 52.8373 17.5593 53.6884C16.9854 54.5196 16.2036 55.1629 15.214 55.6181C14.2442 56.0535 13.1259 56.2712 11.8592 56.2712C10.8894 56.2712 9.98888 56.1327 9.15762 55.8556C8.32635 55.5785 7.54457 55.2124 6.81226 54.7572L6.18881 55.9447H5.14973C5.11014 55.2717 5.03098 54.5691 4.91222 53.8368C4.79347 53.0847 4.66482 52.3524 4.52628 51.6399C4.38773 50.9076 4.24919 50.2347 4.11065 49.6211L5.09035 49.3242C5.70391 50.7888 6.41642 51.9467 7.22789 52.7977C8.05916 53.629 8.89043 54.2228 9.72169 54.579C10.5728 54.9155 11.3347 55.0837 12.0077 55.0837C12.6212 55.0837 13.2546 54.965 13.9077 54.7275C14.5806 54.4702 15.1546 54.0743 15.6296 53.5399C16.1046 53.0056 16.3421 52.3128 16.3421 51.4618C16.3421 50.6701 16.1343 50.017 15.7187 49.5024C15.3228 48.9878 14.7786 48.5523 14.0858 48.1961C13.4129 47.8398 12.6707 47.5232 11.8592 47.2461C11.0676 46.9492 10.266 46.6523 9.4545 46.3554C8.66282 46.0388 7.92062 45.6726 7.22789 45.257C6.55496 44.8215 6.01068 44.2872 5.59505 43.6538C5.19921 43.0007 5.00129 42.1991 5.00129 41.2491C5.00129 40.1011 5.28827 39.1214 5.86224 38.31C6.43621 37.4985 7.19821 36.875 8.14822 36.4396C9.11803 36.0042 10.1769 35.7865 11.3248 35.7865C12.1957 35.7865 12.9676 35.925 13.6405 36.2021C14.3332 36.4594 15.0161 36.8256 15.689 37.3006L16.3124 36.0834H17.3515C17.4307 37.0927 17.5494 38.0725 17.7078 39.0225C17.8661 39.9725 18.0442 40.9126 18.2422 41.8428L17.2625 42.1397C16.7677 40.6751 16.1541 39.5767 15.4218 38.8443C14.7093 38.112 13.977 37.6172 13.2249 37.3599C12.4728 37.1026 11.7999 36.974 11.2061 36.974C9.99878 36.974 9.00918 37.3006 8.23729 37.9537C7.4654 38.6068 7.07945 39.4381 7.07945 40.4475ZM75.253 55.9744V54.9353H77.6281L77.7765 54.7868V37.2709L77.6281 37.1224H75.253V36.0834H82.9719V37.1224H80.5969L80.4484 37.2709V54.7868L80.5969 54.9353H82.9719V55.9744H75.253ZM62.784 55.9744V54.9353H65.1591L65.3075 54.7868V37.2709L65.1591 37.1224H62.784V36.0834H70.5029V37.1224H68.1279L67.9794 37.2709V54.7868L68.1279 54.9353H70.5029V55.9744H62.784ZM67.3857 46.1773V45.1382H78.3703V46.1773H67.3857Z" fill="#009E60"/>
<path d="M33.0732 56.2712C32.4003 56.2712 31.8263 56.1228 31.3513 55.8259C30.8763 55.529 30.5695 55.0837 30.431 54.49V47.0679C30.431 45.8606 30.2034 44.9205 29.7482 44.2476C29.3127 43.5549 28.5309 43.2085 27.4028 43.2085C26.7892 43.2085 26.2153 43.2778 25.6809 43.4163C25.1663 43.5351 24.6814 43.7627 24.2262 44.0991C24.5428 44.2773 24.7606 44.495 24.8793 44.7523C25.0179 45.0096 25.0871 45.2867 25.0871 45.5835C25.0871 46.019 24.9387 46.3752 24.6418 46.6523C24.3449 46.9294 23.9986 47.0679 23.6027 47.0679C23.1871 47.0679 22.8308 46.9195 22.534 46.6226C22.2569 46.3257 22.1183 45.92 22.1183 45.4054C22.1183 44.8908 22.2767 44.4257 22.5933 44.0101C22.91 43.5944 23.3355 43.2382 23.8699 42.9413C24.4043 42.6444 24.9981 42.4168 25.6512 42.2585C26.3241 42.1001 26.9971 42.021 27.67 42.021C28.62 42.021 29.481 42.1595 30.2529 42.4366C31.0247 42.6939 31.6383 43.159 32.0935 43.8319C32.5685 44.4851 32.806 45.4153 32.806 46.6226V53.6884C32.806 53.9655 32.8654 54.2426 32.9842 54.5196C33.1227 54.7967 33.38 54.9353 33.756 54.9353C34.0331 54.9353 34.2805 54.8363 34.4982 54.6384C34.716 54.4405 34.9238 54.2129 35.1217 53.9556L35.9233 54.6384C35.6858 54.9749 35.4285 55.2717 35.1514 55.529C34.8743 55.7665 34.5675 55.9447 34.2311 56.0634C33.8946 56.202 33.5086 56.2712 33.0732 56.2712ZM26.1262 56.2712C24.5626 56.2712 23.3553 55.8853 22.5043 55.1134C21.6532 54.3415 21.2277 53.4212 21.2277 52.3524C21.2277 51.2639 21.6532 50.3435 22.5043 49.5914C23.3553 48.8195 24.5626 48.4336 26.1262 48.4336C27.1158 48.4336 27.9669 48.6018 28.6794 48.9383C29.3919 49.2748 29.9758 49.7003 30.431 50.2149V51.5508C29.7976 50.8779 29.1544 50.4128 28.5013 50.1555C27.8481 49.8982 27.2346 49.7696 26.6606 49.7696C25.7304 49.7696 24.9882 50.0071 24.434 50.4821C23.8798 50.9373 23.6027 51.5607 23.6027 52.3524C23.6027 53.1243 23.8798 53.7478 24.434 54.2228C24.9882 54.6978 25.7304 54.9353 26.6606 54.9353C27.2346 54.9353 27.8481 54.8066 28.5013 54.5493C29.1544 54.292 29.7976 53.8269 30.431 53.154V54.49C29.9758 55.0046 29.3919 55.4301 28.6794 55.7665C27.9669 56.103 27.1158 56.2712 26.1262 56.2712ZM39.349 42.3179V39.8241C39.349 38.7751 39.5073 37.8152 39.824 36.9443C40.1407 36.0537 40.6157 35.3412 41.249 34.8068C41.9022 34.2724 42.7136 34.0052 43.6835 34.0052C44.4158 34.0052 44.9798 34.1635 45.3757 34.4802C45.7715 34.7969 46.0486 35.163 46.2069 35.5787C46.3851 35.9745 46.4741 36.311 46.4741 36.588C46.4741 37.0631 46.3257 37.4589 46.0288 37.7756C45.7517 38.0725 45.4054 38.2209 44.9897 38.2209C44.5741 38.2209 44.2178 38.0823 43.921 37.8053C43.6439 37.5084 43.5053 37.1521 43.5053 36.7365C43.5053 36.3209 43.6538 35.9943 43.9507 35.7568C44.2673 35.4995 44.6137 35.3708 44.9897 35.3708C45.2074 35.3708 45.4153 35.4203 45.6132 35.5193C45.8111 35.6182 45.9694 35.7667 46.0882 35.9646C46.2069 36.1427 46.2663 36.3505 46.2663 36.588H45.3757C45.3757 36.3901 45.3262 36.1625 45.2272 35.9052C45.1481 35.6281 44.9897 35.3906 44.7522 35.1927C44.5345 34.9948 44.2079 34.8958 43.7725 34.8958C43.3173 34.8958 42.9512 35.0344 42.6741 35.3115C42.397 35.5886 42.1892 35.9547 42.0506 36.4099C41.9121 36.8453 41.823 37.3204 41.7834 37.835C41.7438 38.3495 41.724 38.8542 41.724 39.349V42.3179H39.349ZM39.349 55.9744V43.5054L39.2006 43.3569H41.8725L41.724 43.5054V55.9744H39.349ZM36.974 43.3569V42.3179H45.5835V43.3569H36.974ZM36.974 54.9353H39.2006L39.349 54.7868H41.724L41.8725 54.9353H45.2866V55.9744H36.974V54.9353ZM54.6337 55.0837C55.6827 55.0837 56.5634 54.8462 57.276 54.3712C58.0083 53.8962 58.6416 53.3717 59.176 52.7977L59.9776 53.4806C59.5619 53.9754 59.0869 54.4405 58.5525 54.8759C58.038 55.2915 57.4244 55.628 56.7119 55.8853C56.0192 56.1426 55.178 56.2712 54.1884 56.2712C52.9811 56.2712 51.8529 55.9843 50.804 55.4103C49.7748 54.8363 48.9435 54.015 48.3102 52.9462C47.6768 51.8774 47.3601 50.6107 47.3601 49.1461C47.3601 47.6815 47.6768 46.4148 48.3102 45.346C48.9435 44.2773 49.7748 43.4559 50.804 42.8819C51.8529 42.308 52.9811 42.021 54.1884 42.021C55.4155 42.021 56.4645 42.2585 57.3353 42.7335C58.226 43.2085 58.9088 43.9309 59.3838 44.9007C59.8786 45.8705 60.126 47.0877 60.126 48.5523H49.7352V47.5133H57.276C57.1968 46.0882 56.9098 44.9898 56.415 44.2179C55.94 43.446 55.1483 43.0601 54.04 43.0601C53.0702 43.0601 52.2785 43.3173 51.6649 43.8319C51.0712 44.3465 50.6357 45.0689 50.3586 45.9992C50.0816 46.9096 49.943 47.9586 49.943 49.1461C49.943 50.3138 50.1607 51.343 50.5961 52.2337C51.0316 53.1243 51.6055 53.8269 52.3181 54.3415C53.0306 54.8363 53.8025 55.0837 54.6337 55.0837ZM92.7771 42.021C94.0042 42.021 95.1324 42.308 96.1615 42.8819C97.1907 43.4559 98.022 44.2773 98.6553 45.346C99.2887 46.4148 99.6054 47.6815 99.6054 49.1461C99.6054 50.6107 99.2887 51.8774 98.6553 52.9462C98.022 54.015 97.1907 54.8363 96.1615 55.4103C95.1324 55.9843 94.0042 56.2712 92.7771 56.2712C91.5698 56.2712 90.4416 55.9843 89.3927 55.4103C88.3635 54.8363 87.5322 54.015 86.8989 52.9462C86.2655 51.8774 85.9488 50.6107 85.9488 49.1461C85.9488 47.6815 86.2655 46.4148 86.8989 45.346C87.5322 44.2773 88.3635 43.4559 89.3927 42.8819C90.4416 42.308 91.5698 42.021 92.7771 42.021ZM92.9255 55.2322C93.9151 55.2322 94.6969 54.9749 95.2709 54.4603C95.8647 53.9259 96.2902 53.2035 96.5475 52.293C96.8048 51.3826 96.9334 50.3336 96.9334 49.1461C96.9334 47.9784 96.7454 46.9393 96.3694 46.0289C95.9933 45.0986 95.4787 44.3762 94.8256 43.8616C94.1922 43.3272 93.4599 43.0601 92.6287 43.0601C91.6589 43.0601 90.8771 43.3173 90.2833 43.8319C89.6895 44.3465 89.264 45.0689 89.0067 45.9992C88.7494 46.9096 88.6208 47.9586 88.6208 49.1461C88.6208 50.3138 88.8088 51.3628 89.1848 52.293C89.5609 53.2035 90.0656 53.9259 90.6989 54.4603C91.3521 54.9749 92.0943 55.2322 92.9255 55.2322ZM115.505 54.7868L115.654 54.9353H117.88V55.9744C117.366 55.9744 116.861 55.9744 116.366 55.9744C115.891 55.9942 115.406 56.0139 114.912 56.0337C114.437 56.0535 113.942 56.0832 113.427 56.1228L113.279 55.9744V53.154H113.13C112.576 54.0842 111.883 54.8363 111.052 55.4103C110.221 55.9843 109.162 56.2712 107.876 56.2712C106.906 56.2712 106.134 56.103 105.56 55.7665C104.986 55.4103 104.57 54.9452 104.313 54.3712C104.056 53.7774 103.927 53.1243 103.927 52.4118V43.5054L103.779 43.3569H101.552V42.3179C102.067 42.3179 102.581 42.3179 103.096 42.3179C103.61 42.2981 104.115 42.2783 104.61 42.2585C105.124 42.2387 105.639 42.209 106.154 42.1694L106.302 42.3179V51.818C106.302 52.7878 106.46 53.5498 106.777 54.104C107.114 54.6582 107.697 54.9353 108.529 54.9353C109.36 54.9353 110.132 54.6582 110.844 54.104C111.577 53.53 112.339 52.5701 113.13 51.2243V43.5054L112.982 43.3569H110.755V42.3179C111.27 42.3179 111.785 42.3179 112.299 42.3179C112.814 42.2981 113.318 42.2783 113.813 42.2585C114.328 42.2387 114.842 42.209 115.357 42.1694L115.505 42.3179V54.7868ZM122.769 45.257C122.769 45.7914 122.967 46.2169 123.363 46.5336C123.778 46.8304 124.303 47.0877 124.936 47.3054C125.589 47.5034 126.272 47.7112 126.984 47.9289C127.717 48.1466 128.4 48.4237 129.033 48.7602C129.686 49.0768 130.211 49.5123 130.606 50.0664C131.022 50.6008 131.23 51.3133 131.23 52.204C131.23 53.1936 130.973 53.9952 130.458 54.6087C129.963 55.2025 129.35 55.628 128.617 55.8853C127.905 56.1426 127.212 56.2712 126.539 56.2712C125.728 56.2712 124.995 56.1624 124.342 55.9447C123.709 55.727 123.135 55.44 122.62 55.0837L122.175 55.9744H121.047C120.928 55.2025 120.78 54.4405 120.602 53.6884C120.443 52.9165 120.245 52.1446 120.008 51.3727L120.987 51.0758C121.522 52.1842 122.126 53.0451 122.798 53.6587C123.471 54.2525 124.134 54.6681 124.788 54.9056C125.441 55.1233 126.005 55.2322 126.48 55.2322C127.173 55.2322 127.786 55.0441 128.32 54.6681C128.875 54.2722 129.152 53.6785 129.152 52.8868C129.152 52.2733 128.944 51.7982 128.528 51.4618C128.132 51.1055 127.608 50.8185 126.955 50.6008C126.321 50.3831 125.639 50.1753 124.906 49.9774C124.194 49.7597 123.511 49.5024 122.858 49.2055C122.224 48.9086 121.7 48.5029 121.284 47.9883C120.889 47.4539 120.691 46.7612 120.691 45.9101C120.691 45.0393 120.928 44.3168 121.403 43.7429C121.878 43.1689 122.482 42.7434 123.214 42.4663C123.966 42.1694 124.758 42.021 125.589 42.021C126.222 42.021 126.806 42.11 127.341 42.2882C127.875 42.4465 128.311 42.6642 128.647 42.9413L128.944 42.3179H130.072C130.171 42.9908 130.29 43.6637 130.428 44.3366C130.587 45.0096 130.765 45.6825 130.963 46.3554L129.983 46.6523C129.548 45.5835 128.974 44.7226 128.261 44.0694C127.568 43.3965 126.668 43.0601 125.559 43.0601C124.53 43.0601 123.808 43.2976 123.392 43.7726C122.977 44.2278 122.769 44.7226 122.769 45.257ZM141.466 55.0837C142.515 55.0837 143.395 54.8462 144.108 54.3712C144.84 53.8962 145.473 53.3717 146.008 52.7977L146.809 53.4806C146.394 53.9754 145.919 54.4405 145.384 54.8759C144.87 55.2915 144.256 55.628 143.544 55.8853C142.851 56.1426 142.01 56.2712 141.02 56.2712C139.813 56.2712 138.685 55.9843 137.636 55.4103C136.607 54.8363 135.775 54.015 135.142 52.9462C134.509 51.8774 134.192 50.6107 134.192 49.1461C134.192 47.6815 134.509 46.4148 135.142 45.346C135.775 44.2773 136.607 43.4559 137.636 42.8819C138.685 42.308 139.813 42.021 141.02 42.021C142.247 42.021 143.296 42.2585 144.167 42.7335C145.058 43.2085 145.741 43.9309 146.216 44.9007C146.71 45.8705 146.958 47.0877 146.958 48.5523H136.567V47.5133H144.108C144.029 46.0882 143.742 44.9898 143.247 44.2179C142.772 43.446 141.98 43.0601 140.872 43.0601C139.902 43.0601 139.11 43.3173 138.497 43.8319C137.903 44.3465 137.468 45.0689 137.19 45.9992C136.913 46.9096 136.775 47.9586 136.775 49.1461C136.775 50.3138 136.993 51.343 137.428 52.2337C137.863 53.1243 138.437 53.8269 139.15 54.3415C139.862 54.8363 140.634 55.0837 141.466 55.0837Z" fill="white"/>
</svg>
