<svg width="190" height="96" viewBox="0 0 190 96" fill="none" xmlns="http://www.w3.org/2000/svg">
<rect width="102.722" height="3.82061" rx="1.91031" transform="matrix(0.965371 -0.26088 0.250107 0.968218 10.2875 31.4733)" fill="#009E60"/>
<rect width="123.384" height="3.82021" rx="1.91011" transform="matrix(-0.962828 -0.270114 -0.259014 0.965873 190 33.3278)" fill="#121212"/>
<rect width="105.72" height="3.80589" rx="1.90294" transform="matrix(1 0 0 -1 41.8064 96)" fill="#121212"/>
<path d="M8.45658 52.4472C8.45658 53.3485 8.70693 54.0995 9.20763 54.7004C9.73337 55.2762 10.4218 55.7643 11.273 56.1649C12.1492 56.5404 13.0881 56.9034 14.0895 57.2539C15.1159 57.5794 16.1298 57.9424 17.1312 58.343C18.1576 58.7185 19.0965 59.1941 19.9476 59.7699C20.8239 60.3458 21.5123 61.0843 22.013 61.9855C22.5388 62.8618 22.8016 63.9633 22.8016 65.2902C22.8016 66.8173 22.4386 68.1191 21.7126 69.1956C20.9866 70.2471 19.9977 71.0607 18.746 71.6365C17.5192 72.1873 16.1048 72.4627 14.5025 72.4627C13.2758 72.4627 12.1367 72.2874 11.0853 71.9369C10.0338 71.5865 9.04491 71.1233 8.11861 70.5475L7.33001 72.0496H6.01567C5.9656 71.1984 5.86546 70.3097 5.71525 69.3834C5.56504 68.4321 5.40232 67.5058 5.22707 66.6045C5.05183 65.6782 4.87658 64.827 4.70134 64.0509L5.94057 63.6754C6.71665 65.528 7.61791 66.9925 8.64435 68.069C9.69582 69.1205 10.7473 69.8716 11.7988 70.3222C12.8753 70.7478 13.8391 70.9606 14.6903 70.9606C15.4664 70.9606 16.2675 70.8104 17.0937 70.51C17.9448 70.1845 18.6709 69.6838 19.2717 69.0079C19.8725 68.3319 20.173 67.4557 20.173 66.3792C20.173 65.3778 19.9101 64.5516 19.3844 63.9007C18.8837 63.2498 18.1952 62.699 17.319 62.2484C16.4678 61.7978 15.529 61.3972 14.5025 61.0467C13.5011 60.6712 12.4872 60.2957 11.4608 59.9202C10.4594 59.5196 9.52057 59.0565 8.64435 58.5307C7.79316 57.9799 7.1047 57.304 6.57896 56.5029C6.07826 55.6767 5.82791 54.6628 5.82791 53.4611C5.82791 52.0091 6.19092 50.7699 6.91693 49.7434C7.64295 48.717 8.60679 47.9284 9.80847 47.3776C11.0352 46.8269 12.3746 46.5515 13.8266 46.5515C14.9281 46.5515 15.9045 46.7267 16.7557 47.0772C17.6319 47.4027 18.4956 47.8658 19.3468 48.4667L20.1354 46.927H21.4497C21.5499 48.2038 21.7001 49.443 21.9004 50.6447C22.1006 51.8464 22.326 53.0355 22.5763 54.2122L21.3371 54.5877C20.7112 52.7351 19.9351 51.3457 19.0088 50.4194C18.1076 49.4931 17.1813 48.8672 16.2299 48.5418C15.2786 48.2163 14.4274 48.0536 13.6764 48.0536C12.1492 48.0536 10.8975 48.4667 9.92113 49.2928C8.94477 50.119 8.45658 51.1704 8.45658 52.4472ZM94.6894 72.0872V70.7728H97.6936L97.8813 70.5851V48.4291L97.6936 48.2413H94.6894V46.927H104.453V48.2413H101.449L101.261 48.4291V70.5851L101.449 70.7728H104.453V72.0872H94.6894ZM78.9173 72.0872V70.7728H81.9215L82.1093 70.5851V48.4291L81.9215 48.2413H78.9173V46.927H88.681V48.2413H85.6768L85.489 48.4291V70.5851L85.6768 70.7728H88.681V72.0872H78.9173ZM84.738 59.6948V58.3805H98.6324V59.6948H84.738Z" fill="#009E60"/>
<path d="M41.3361 72.4627C40.4849 72.4627 39.7589 72.2749 39.1581 71.8994C38.5572 71.5239 38.1692 70.9606 37.994 70.2095V60.8214C37.994 59.2943 37.706 58.1051 37.1302 57.2539C36.5795 56.3777 35.5906 55.9396 34.1636 55.9396C33.3875 55.9396 32.6615 56.0272 31.9856 56.2025C31.3346 56.3527 30.7213 56.6406 30.1455 57.0662C30.546 57.2915 30.8214 57.5669 30.9716 57.8923C31.1469 58.2178 31.2345 58.5683 31.2345 58.9438C31.2345 59.4946 31.0467 59.9452 30.6712 60.2957C30.2957 60.6462 29.8576 60.8214 29.3569 60.8214C28.8311 60.8214 28.3805 60.6337 28.005 60.2581C27.6545 59.8826 27.4793 59.3694 27.4793 58.7185C27.4793 58.0676 27.6795 57.4792 28.0801 56.9535C28.4807 56.4278 29.0189 55.9771 29.6949 55.6016C30.3708 55.2261 31.1218 54.9382 31.948 54.7379C32.7992 54.5376 33.6504 54.4375 34.5016 54.4375C35.7032 54.4375 36.7923 54.6127 37.7686 54.9632C38.745 55.2887 39.5211 55.877 40.0969 56.7282C40.6977 57.5544 40.9981 58.731 40.9981 60.2581V69.1956C40.9981 69.5461 41.0733 69.8966 41.2235 70.2471C41.3987 70.5976 41.7242 70.7728 42.1998 70.7728C42.5503 70.7728 42.8633 70.6476 43.1386 70.3973C43.414 70.1469 43.6769 69.859 43.9272 69.5336L44.9412 70.3973C44.6407 70.8229 44.3153 71.1984 43.9648 71.5239C43.6143 71.8243 43.2263 72.0496 42.8007 72.1998C42.3751 72.3751 41.8869 72.4627 41.3361 72.4627ZM32.5488 72.4627C30.5711 72.4627 29.0439 71.9745 27.9674 70.9981C26.8909 70.0218 26.3527 68.8576 26.3527 67.5058C26.3527 66.1288 26.8909 64.9647 27.9674 64.0134C29.0439 63.037 30.5711 62.5488 32.5488 62.5488C33.8006 62.5488 34.8771 62.7616 35.7784 63.1872C36.6796 63.6128 37.4181 64.1511 37.994 64.802V66.4918C37.1928 65.6407 36.3792 65.0523 35.553 64.7269C34.7269 64.4014 33.9508 64.2387 33.2248 64.2387C32.0481 64.2387 31.1093 64.5391 30.4084 65.14C29.7074 65.7158 29.3569 66.5044 29.3569 67.5058C29.3569 68.4821 29.7074 69.2707 30.4084 69.8716C31.1093 70.4724 32.0481 70.7728 33.2248 70.7728C33.9508 70.7728 34.7269 70.6101 35.553 70.2846C36.3792 69.9592 37.1928 69.3709 37.994 68.5197V70.2095C37.4181 70.8604 36.6796 71.3987 35.7784 71.8243C34.8771 72.2499 33.8006 72.4627 32.5488 72.4627ZM49.2744 54.813V51.6586C49.2744 50.3318 49.4746 49.1176 49.8752 48.016C50.2758 46.8894 50.8766 45.9882 51.6777 45.3122C52.5039 44.6363 53.5303 44.2983 54.757 44.2983C55.6833 44.2983 56.3968 44.4986 56.8975 44.8992C57.3982 45.2997 57.7487 45.7629 57.949 46.2886C58.1743 46.7893 58.287 47.2149 58.287 47.5654C58.287 48.1662 58.0992 48.6669 57.7237 49.0675C57.3732 49.443 56.9351 49.6308 56.4093 49.6308C55.8836 49.6308 55.433 49.4555 55.0574 49.105C54.707 48.7295 54.5317 48.2789 54.5317 47.7532C54.5317 47.2274 54.7195 46.8143 55.095 46.5139C55.4956 46.1885 55.9337 46.0257 56.4093 46.0257C56.6847 46.0257 56.9476 46.0883 57.1979 46.2135C57.4483 46.3387 57.6486 46.5264 57.7988 46.7768C57.949 47.0021 58.0241 47.265 58.0241 47.5654H56.8975C56.8975 47.315 56.8349 47.0271 56.7097 46.7017C56.6096 46.3512 56.4093 46.0508 56.1089 45.8004C55.8335 45.5501 55.4204 45.4249 54.8697 45.4249C54.2939 45.4249 53.8307 45.6001 53.4802 45.9506C53.1297 46.3011 52.8669 46.7643 52.6916 47.3401C52.5164 47.8908 52.4037 48.4917 52.3537 49.1426C52.3036 49.7935 52.2786 50.4319 52.2786 51.0578V54.813H49.2744ZM49.2744 72.0872V56.3151L49.0866 56.1274H52.4663L52.2786 56.3151V72.0872H49.2744ZM46.2702 56.1274V54.813H57.1604V56.1274H46.2702ZM46.2702 70.7728H49.0866L49.2744 70.5851H52.2786L52.4663 70.7728H56.7849V72.0872H46.2702V70.7728ZM68.608 70.9606C69.9349 70.9606 71.0489 70.6602 71.9502 70.0593C72.8765 69.4585 73.6776 68.7951 74.3535 68.069L75.3675 68.9328C74.8417 69.5586 74.2409 70.1469 73.5649 70.6977C72.914 71.2235 72.1379 71.649 71.2367 71.9745C70.3605 72.3 69.2965 72.4627 68.0447 72.4627C66.5176 72.4627 65.0906 72.0997 63.7637 71.3737C62.4619 70.6476 61.4105 69.6087 60.6093 68.2568C59.8082 66.9049 59.4077 65.3027 59.4077 63.4501C59.4077 61.5975 59.8082 59.9953 60.6093 58.6434C61.4105 57.2915 62.4619 56.2525 63.7637 55.5265C65.0906 54.8005 66.5176 54.4375 68.0447 54.4375C69.5969 54.4375 70.9238 54.7379 72.0253 55.3388C73.1519 55.9396 74.0156 56.8534 74.6164 58.0801C75.2423 59.3068 75.5552 60.8465 75.5552 62.699H62.4119V61.3847H71.9502C71.85 59.5822 71.487 58.1927 70.8612 57.2164C70.2603 56.24 69.2589 55.7518 67.857 55.7518C66.6303 55.7518 65.6289 56.0773 64.8528 56.7282C64.1017 57.3791 63.551 58.2929 63.2005 59.4695C62.85 60.6211 62.6747 61.948 62.6747 63.4501C62.6747 64.9272 62.9501 66.229 63.5009 67.3555C64.0516 68.4821 64.7777 69.3709 65.6789 70.0218C66.5802 70.6476 67.5565 70.9606 68.608 70.9606ZM116.856 54.4375C118.408 54.4375 119.835 54.8005 121.137 55.5265C122.438 56.2525 123.49 57.2915 124.291 58.6434C125.092 59.9953 125.493 61.5975 125.493 63.4501C125.493 65.3027 125.092 66.9049 124.291 68.2568C123.49 69.6087 122.438 70.6476 121.137 71.3737C119.835 72.0997 118.408 72.4627 116.856 72.4627C115.328 72.4627 113.901 72.0997 112.575 71.3737C111.273 70.6476 110.221 69.6087 109.42 68.2568C108.619 66.9049 108.219 65.3027 108.219 63.4501C108.219 61.5975 108.619 59.9953 109.42 58.6434C110.221 57.2915 111.273 56.2525 112.575 55.5265C113.901 54.8005 115.328 54.4375 116.856 54.4375ZM117.043 71.1483C118.295 71.1483 119.284 70.8229 120.01 70.172C120.761 69.496 121.299 68.5823 121.625 67.4307C121.95 66.279 122.113 64.9522 122.113 63.4501C122.113 61.973 121.875 60.6587 121.399 59.5071C120.924 58.3304 120.273 57.4167 119.447 56.7657C118.646 56.0898 117.719 55.7518 116.668 55.7518C115.441 55.7518 114.452 56.0773 113.701 56.7282C112.95 57.3791 112.412 58.2929 112.086 59.4695C111.761 60.6211 111.598 61.948 111.598 63.4501C111.598 64.9272 111.836 66.254 112.312 67.4307C112.787 68.5823 113.426 69.496 114.227 70.172C115.053 70.8229 115.992 71.1483 117.043 71.1483ZM145.605 70.5851L145.792 70.7728H148.609V72.0872C147.958 72.0872 147.32 72.0872 146.694 72.0872C146.093 72.1122 145.479 72.1372 144.854 72.1623C144.253 72.1873 143.627 72.2249 142.976 72.2749L142.788 72.0872V68.5197H142.6C141.899 69.6963 141.023 70.6476 139.972 71.3737C138.92 72.0997 137.581 72.4627 135.954 72.4627C134.727 72.4627 133.751 72.2499 133.025 71.8243C132.299 71.3737 131.773 70.7853 131.447 70.0593C131.122 69.3083 130.959 68.4821 130.959 67.5809V56.3151L130.771 56.1274H127.955V54.813C128.606 54.813 129.257 54.813 129.908 54.813C130.559 54.788 131.197 54.763 131.823 54.7379C132.474 54.7129 133.125 54.6753 133.776 54.6253L133.963 54.813V66.8298C133.963 68.0565 134.164 69.0204 134.564 69.7214C134.99 70.4223 135.728 70.7728 136.78 70.7728C137.831 70.7728 138.808 70.4223 139.709 69.7214C140.635 68.9953 141.599 67.7811 142.6 66.0788V56.3151L142.413 56.1274H139.596V54.813C140.247 54.813 140.898 54.813 141.549 54.813C142.2 54.788 142.838 54.763 143.464 54.7379C144.115 54.7129 144.766 54.6753 145.417 54.6253L145.605 54.813V70.5851ZM154.792 58.5307C154.792 59.2067 155.042 59.7449 155.543 60.1455C156.069 60.521 156.732 60.8465 157.533 61.1218C158.36 61.3722 159.223 61.6351 160.125 61.9104C161.051 62.1858 161.915 62.5363 162.716 62.9619C163.542 63.3625 164.205 63.9132 164.706 64.6142C165.232 65.2902 165.495 66.1914 165.495 67.318C165.495 68.5697 165.169 69.5837 164.518 70.3597C163.892 71.1108 163.116 71.649 162.19 71.9745C161.289 72.3 160.412 72.4627 159.561 72.4627C158.535 72.4627 157.609 72.325 156.782 72.0496C155.981 71.7742 155.255 71.4112 154.604 70.9606L154.041 72.0872H152.614C152.464 71.1108 152.276 70.1469 152.051 69.1956C151.851 68.2193 151.6 67.2429 151.3 66.2665L152.539 65.891C153.215 67.293 153.978 68.382 154.83 69.1581C155.681 69.9091 156.52 70.4348 157.346 70.7353C158.172 71.0107 158.885 71.1483 159.486 71.1483C160.362 71.1483 161.138 70.9105 161.814 70.4348C162.515 69.9341 162.866 69.1831 162.866 68.1817C162.866 67.4056 162.603 66.8048 162.077 66.3792C161.577 65.9286 160.913 65.5655 160.087 65.2902C159.286 65.0148 158.422 64.7519 157.496 64.5016C156.595 64.2262 155.731 63.9007 154.905 63.5252C154.104 63.1497 153.44 62.6365 152.914 61.9855C152.414 61.3096 152.163 60.4334 152.163 59.3569C152.163 58.2553 152.464 57.3416 153.065 56.6155C153.666 55.8895 154.429 55.3513 155.355 55.0008C156.307 54.6253 157.308 54.4375 158.36 54.4375C159.161 54.4375 159.899 54.5502 160.575 54.7755C161.251 54.9757 161.802 55.2511 162.228 55.6016L162.603 54.813H164.03C164.155 55.6642 164.305 56.5154 164.481 57.3666C164.681 58.2178 164.906 59.069 165.157 59.9202L163.917 60.2957C163.367 58.9438 162.641 57.8548 161.739 57.0286C160.863 56.1774 159.724 55.7518 158.322 55.7518C157.02 55.7518 156.106 56.0523 155.581 56.6531C155.055 57.2289 154.792 57.8548 154.792 58.5307ZM178.442 70.9606C179.769 70.9606 180.883 70.6602 181.784 70.0593C182.71 69.4585 183.511 68.7951 184.187 68.069L185.201 68.9328C184.675 69.5586 184.075 70.1469 183.399 70.6977C182.748 71.2235 181.972 71.649 181.07 71.9745C180.194 72.3 179.13 72.4627 177.878 72.4627C176.351 72.4627 174.924 72.0997 173.597 71.3737C172.296 70.6476 171.244 69.6087 170.443 68.2568C169.642 66.9049 169.241 65.3027 169.241 63.4501C169.241 61.5975 169.642 59.9953 170.443 58.6434C171.244 57.2915 172.296 56.2525 173.597 55.5265C174.924 54.8005 176.351 54.4375 177.878 54.4375C179.431 54.4375 180.757 54.7379 181.859 55.3388C182.986 55.9396 183.849 56.8534 184.45 58.0801C185.076 59.3068 185.389 60.8465 185.389 62.699H172.245V61.3847H181.784C181.684 59.5822 181.321 58.1927 180.695 57.2164C180.094 56.24 179.093 55.7518 177.691 55.7518C176.464 55.7518 175.462 56.0773 174.686 56.7282C173.935 57.3791 173.385 58.2929 173.034 59.4695C172.684 60.6211 172.508 61.948 172.508 63.4501C172.508 64.9272 172.784 66.229 173.335 67.3555C173.885 68.4821 174.611 69.3709 175.513 70.0218C176.414 70.6476 177.39 70.9606 178.442 70.9606Z" fill="black"/>
</svg>
