<svg width="103" height="50" viewBox="0 0 103 50" fill="none" xmlns="http://www.w3.org/2000/svg">
<rect y="17.5916" width="58.6365" height="2.13854" rx="1.06927" transform="rotate(-14.7999 0 17.5916)" fill="#009E60"/>
<rect width="70.4231" height="2.13854" rx="1.06927" transform="matrix(-0.964382 -0.264515 -0.264515 0.964382 102.739 18.6279)" fill="#121212"/>
<rect width="60.4384" height="2.12723" rx="1.06362" transform="matrix(1 0 0 -1 17.6869 50)" fill="#121212"/>
<path d="M33.8941 27.0728C33.8941 27.7091 34.0709 28.2394 34.4244 28.6636C34.7956 29.0702 35.2817 29.4149 35.8827 29.6977C36.5013 29.9628 37.1642 30.2191 37.8712 30.4666C38.5959 30.6964 39.3118 30.9527 40.0189 31.2355C40.7436 31.5007 41.4064 31.8365 42.0074 32.2431C42.6261 32.6496 43.1122 33.171 43.4657 33.8074C43.8369 34.4261 44.0225 35.2038 44.0225 36.1406C44.0225 37.2189 43.7662 38.138 43.2536 38.8981C42.741 39.6405 42.0428 40.215 41.159 40.6215C40.2929 41.0104 39.2942 41.2048 38.1629 41.2048C37.2968 41.2048 36.4925 41.0811 35.7501 40.8336C35.0077 40.5862 34.3095 40.2592 33.6555 39.8526L33.0987 40.9132H32.1707C32.1353 40.3122 32.0646 39.6847 31.9586 39.0307C31.8525 38.359 31.7376 37.705 31.6139 37.0686C31.4902 36.4146 31.3664 35.8136 31.2427 35.2657L32.1177 35.0005C32.6656 36.3086 33.302 37.3426 34.0267 38.1027C34.7691 38.8451 35.5115 39.3754 36.2539 39.6935C37.0139 39.994 37.6945 40.1443 38.2955 40.1443C38.8434 40.1443 39.409 40.0382 39.9924 39.8261C40.5933 39.5963 41.106 39.2428 41.5302 38.7655C41.9544 38.2883 42.1665 37.6696 42.1665 36.9095C42.1665 36.2025 41.9809 35.6192 41.6097 35.1596C41.2562 34.7 40.7701 34.3112 40.1514 33.993C39.5505 33.6748 38.8876 33.392 38.1629 33.1445C37.4558 32.8794 36.74 32.6143 36.0152 32.3491C35.3082 32.0663 34.6453 31.7393 34.0267 31.3681C33.4257 30.9792 32.9396 30.502 32.5684 29.9363C32.2149 29.353 32.0381 28.6371 32.0381 27.7887C32.0381 26.7635 32.2944 25.8885 32.807 25.1638C33.3196 24.4391 34.0002 23.8823 34.8486 23.4934C35.7147 23.1045 36.6604 22.9101 37.6856 22.9101C38.4634 22.9101 39.1527 23.0338 39.7537 23.2813C40.3724 23.5111 40.9822 23.8381 41.5832 24.2623L42.14 23.1752H43.068C43.1387 24.0767 43.2448 24.9517 43.3862 25.8001C43.5276 26.6486 43.6867 27.4882 43.8634 28.319L42.9885 28.5841C42.5466 27.2761 41.9986 26.295 41.3446 25.641C40.7082 24.987 40.0542 24.5451 39.3825 24.3153C38.7108 24.0855 38.1099 23.9706 37.5796 23.9706C36.5013 23.9706 35.6175 24.2623 34.9282 24.8456C34.2388 25.4289 33.8941 26.1713 33.8941 27.0728ZM58.0634 40.9397V40.0117H60.1845L60.3171 39.8791V24.2358L60.1845 24.1032H58.0634V23.1752H64.9571V24.1032H62.836L62.7034 24.2358V39.8791L62.836 40.0117H64.9571V40.9397H58.0634ZM46.9275 40.9397V40.0117H49.0486L49.1812 39.8791V24.2358L49.0486 24.1032H46.9275V23.1752H53.8212V24.1032H51.7L51.5674 24.2358V39.8791L51.7 40.0117H53.8212V40.9397H46.9275ZM51.0372 32.19V31.262H60.8474V32.19H51.0372Z" fill="black"/>
</svg>
