<svg width="235" height="116" viewBox="0 0 235 116" fill="none" xmlns="http://www.w3.org/2000/svg">
<rect x="12.6958" y="37.975" width="126.58" height="4.61652" rx="2.30826" transform="rotate(-14.7999 12.6958 37.975)" fill="#009E60"/>
<rect width="152.024" height="4.61652" rx="2.30826" transform="matrix(-0.964382 -0.264515 -0.264515 0.964382 234.48 40.2125)" fill="white"/>
<rect width="130.47" height="4.5921" rx="2.29605" transform="matrix(1 0 0 -1 51.5938 115.832)" fill="white"/>
<path d="M11.2325 62.942C11.2325 64.046 11.5391 64.966 12.1525 65.702C12.7965 66.4073 13.6398 67.0053 14.6825 67.496C15.7558 67.956 16.9058 68.4007 18.1325 68.83C19.3898 69.2287 20.6318 69.6733 21.8585 70.164C23.1158 70.624 24.2658 71.2067 25.3085 71.912C26.3818 72.6173 27.2251 73.522 27.8385 74.626C28.4825 75.6993 28.8045 77.0487 28.8045 78.674C28.8045 80.5447 28.3598 82.1393 27.4705 83.458C26.5811 84.746 25.3698 85.7427 23.8365 86.448C22.3338 87.1227 20.6011 87.46 18.6385 87.46C17.1358 87.46 15.7405 87.2453 14.4525 86.816C13.1645 86.3867 11.9531 85.8193 10.8185 85.114L9.85248 86.954H8.24247C8.18114 85.9113 8.05847 84.8227 7.87447 83.688C7.69047 82.5227 7.49114 81.388 7.27647 80.284C7.06181 79.1493 6.84714 78.1067 6.63247 77.156L8.15047 76.696C9.10114 78.9653 10.2051 80.7593 11.4625 82.078C12.7505 83.366 14.0385 84.286 15.3265 84.838C16.6451 85.3593 17.8258 85.62 18.8685 85.62C19.8191 85.62 20.8005 85.436 21.8125 85.068C22.8551 84.6693 23.7445 84.056 24.4805 83.228C25.2165 82.4 25.5845 81.3267 25.5845 80.008C25.5845 78.7813 25.2625 77.7693 24.6185 76.972C24.0051 76.1747 23.1618 75.5 22.0885 74.948C21.0458 74.396 19.8958 73.9053 18.6385 73.476C17.4118 73.016 16.1698 72.556 14.9125 72.096C13.6858 71.6053 12.5358 71.038 11.4625 70.394C10.4198 69.7193 9.57648 68.8913 8.93247 67.91C8.31914 66.898 8.01247 65.656 8.01247 64.184C8.01247 62.4053 8.45714 60.8873 9.34647 59.63C10.2358 58.3727 11.4165 57.4067 12.8885 56.732C14.3911 56.0573 16.0318 55.72 17.8105 55.72C19.1598 55.72 20.3558 55.9347 21.3985 56.364C22.4718 56.7627 23.5298 57.33 24.5725 58.066L25.5385 56.18H27.1485C27.2711 57.744 27.4551 59.262 27.7005 60.734C27.9458 62.206 28.2218 63.6627 28.5285 65.104L27.0105 65.564C26.2438 63.2947 25.2931 61.5927 24.1585 60.458C23.0545 59.3233 21.9198 58.5567 20.7545 58.158C19.5891 57.7593 18.5465 57.56 17.6265 57.56C15.7558 57.56 14.2225 58.066 13.0265 59.078C11.8305 60.09 11.2325 61.378 11.2325 62.942ZM51.5084 87.46C50.4657 87.46 49.5764 87.23 48.8404 86.77C48.1044 86.31 47.629 85.62 47.4144 84.7V73.2C47.4144 71.3293 47.0617 69.8727 46.3564 68.83C45.6817 67.7567 44.4704 67.22 42.7224 67.22C41.7717 67.22 40.8824 67.3273 40.0543 67.542C39.257 67.726 38.5057 68.0787 37.8004 68.6C38.291 68.876 38.6284 69.2133 38.8124 69.612C39.027 70.0107 39.1343 70.44 39.1343 70.9C39.1343 71.5747 38.9043 72.1267 38.4443 72.556C37.9843 72.9853 37.4477 73.2 36.8343 73.2C36.1903 73.2 35.6383 72.97 35.1783 72.51C34.749 72.05 34.5343 71.4213 34.5343 70.624C34.5343 69.8267 34.7797 69.106 35.2703 68.462C35.761 67.818 36.4203 67.266 37.2483 66.806C38.0763 66.346 38.9964 65.9933 40.0084 65.748C41.051 65.5027 42.0937 65.38 43.1363 65.38C44.6084 65.38 45.9424 65.5947 47.1384 66.024C48.3344 66.4227 49.285 67.1433 49.9904 68.186C50.7264 69.198 51.0944 70.6393 51.0944 72.51V83.458C51.0944 83.8873 51.1864 84.3167 51.3704 84.746C51.585 85.1753 51.9837 85.39 52.5664 85.39C52.9957 85.39 53.379 85.2367 53.7164 84.93C54.0537 84.6233 54.3757 84.2707 54.6824 83.872L55.9244 84.93C55.5564 85.4513 55.1577 85.9113 54.7284 86.31C54.299 86.678 53.8237 86.954 53.3024 87.138C52.781 87.3527 52.183 87.46 51.5084 87.46ZM40.7443 87.46C38.3217 87.46 36.451 86.862 35.1323 85.666C33.8137 84.47 33.1543 83.044 33.1543 81.388C33.1543 79.7013 33.8137 78.2753 35.1323 77.11C36.451 75.914 38.3217 75.316 40.7443 75.316C42.2777 75.316 43.5963 75.5767 44.7004 76.098C45.8044 76.6193 46.709 77.2787 47.4144 78.076V80.146C46.433 79.1033 45.4364 78.3827 44.4243 77.984C43.4123 77.5853 42.4617 77.386 41.5724 77.386C40.131 77.386 38.981 77.754 38.1223 78.49C37.2637 79.1953 36.8343 80.1613 36.8343 81.388C36.8343 82.584 37.2637 83.55 38.1223 84.286C38.981 85.022 40.131 85.39 41.5724 85.39C42.4617 85.39 43.4123 85.1907 44.4243 84.792C45.4364 84.3933 46.433 83.6727 47.4144 82.63V84.7C46.709 85.4973 45.8044 86.1567 44.7004 86.678C43.5963 87.1993 42.2777 87.46 40.7443 87.46ZM61.2323 65.84V61.976C61.2323 60.3507 61.4777 58.8633 61.9683 57.514C62.459 56.134 63.195 55.03 64.1763 54.202C65.1883 53.374 66.4457 52.96 67.9483 52.96C69.083 52.96 69.957 53.2053 70.5703 53.696C71.1837 54.1867 71.613 54.754 71.8583 55.398C72.1343 56.0113 72.2723 56.5327 72.2723 56.962C72.2723 57.698 72.0423 58.3113 71.5823 58.802C71.153 59.262 70.6163 59.492 69.9723 59.492C69.3283 59.492 68.7763 59.2773 68.3163 58.848C67.887 58.388 67.6723 57.836 67.6723 57.192C67.6723 56.548 67.9023 56.042 68.3623 55.674C68.853 55.2753 69.3897 55.076 69.9723 55.076C70.3097 55.076 70.6317 55.1527 70.9383 55.306C71.245 55.4593 71.4903 55.6893 71.6743 55.996C71.8583 56.272 71.9503 56.594 71.9503 56.962H70.5703C70.5703 56.6553 70.4937 56.3027 70.3403 55.904C70.2177 55.4747 69.9723 55.1067 69.6043 54.8C69.267 54.4933 68.761 54.34 68.0863 54.34C67.381 54.34 66.8137 54.5547 66.3843 54.984C65.955 55.4133 65.633 55.9807 65.4183 56.686C65.2037 57.3607 65.0657 58.0967 65.0043 58.894C64.943 59.6913 64.9123 60.4733 64.9123 61.24V65.84H61.2323ZM61.2323 87V67.68L61.0023 67.45H65.1423L64.9123 67.68V87H61.2323ZM57.5523 67.45V65.84H70.8923V67.45H57.5523ZM57.5523 85.39H61.0023L61.2323 85.16H64.9123L65.1423 85.39H70.4323V87H57.5523V85.39ZM84.9151 85.62C86.5405 85.62 87.9051 85.252 89.0091 84.516C90.1438 83.78 91.1251 82.9673 91.9531 82.078L93.1951 83.136C92.5511 83.9027 91.8151 84.6233 90.9871 85.298C90.1898 85.942 89.2391 86.4633 88.1351 86.862C87.0618 87.2607 85.7585 87.46 84.2251 87.46C82.3545 87.46 80.6065 87.0153 78.9811 86.126C77.3865 85.2367 76.0985 83.964 75.1171 82.308C74.1358 80.652 73.6451 78.6893 73.6451 76.42C73.6451 74.1507 74.1358 72.188 75.1171 70.532C76.0985 68.876 77.3865 67.6033 78.9811 66.714C80.6065 65.8247 82.3545 65.38 84.2251 65.38C86.1265 65.38 87.7518 65.748 89.1011 66.484C90.4811 67.22 91.5391 68.3393 92.2751 69.842C93.0418 71.3447 93.4251 73.2307 93.4251 75.5H77.3251V73.89H89.0091C88.8865 71.682 88.4418 69.98 87.6751 68.784C86.9391 67.588 85.7125 66.99 83.9951 66.99C82.4925 66.99 81.2658 67.3887 80.3151 68.186C79.3951 68.9833 78.7205 70.1027 78.2911 71.544C77.8618 72.9547 77.6471 74.58 77.6471 76.42C77.6471 78.2293 77.9845 79.824 78.6591 81.204C79.3338 82.584 80.2231 83.6727 81.3271 84.47C82.4311 85.2367 83.6271 85.62 84.9151 85.62ZM116.864 87V85.39H120.544L120.774 85.16V58.02L120.544 57.79H116.864V56.18H128.824V57.79H125.144L124.914 58.02V85.16L125.144 85.39H128.824V87H116.864ZM97.5436 87V85.39H101.224L101.454 85.16V58.02L101.224 57.79H97.5436V56.18H109.504V57.79H105.824L105.594 58.02V85.16L105.824 85.39H109.504V87H97.5436ZM104.674 71.82V70.21H121.694V71.82H104.674ZM144.016 65.38C145.917 65.38 147.665 65.8247 149.26 66.714C150.855 67.6033 152.143 68.876 153.124 70.532C154.105 72.188 154.596 74.1507 154.596 76.42C154.596 78.6893 154.105 80.652 153.124 82.308C152.143 83.964 150.855 85.2367 149.26 86.126C147.665 87.0153 145.917 87.46 144.016 87.46C142.145 87.46 140.397 87.0153 138.772 86.126C137.177 85.2367 135.889 83.964 134.908 82.308C133.927 80.652 133.436 78.6893 133.436 76.42C133.436 74.1507 133.927 72.188 134.908 70.532C135.889 68.876 137.177 67.6033 138.772 66.714C140.397 65.8247 142.145 65.38 144.016 65.38ZM144.246 85.85C145.779 85.85 146.991 85.4513 147.88 84.654C148.8 83.826 149.459 82.7067 149.858 81.296C150.257 79.8853 150.456 78.26 150.456 76.42C150.456 74.6107 150.165 73.0007 149.582 71.59C148.999 70.1487 148.202 69.0293 147.19 68.232C146.209 67.404 145.074 66.99 143.786 66.99C142.283 66.99 141.072 67.3887 140.152 68.186C139.232 68.9833 138.573 70.1027 138.174 71.544C137.775 72.9547 137.576 74.58 137.576 76.42C137.576 78.2293 137.867 79.8547 138.45 81.296C139.033 82.7067 139.815 83.826 140.796 84.654C141.808 85.4513 142.958 85.85 144.246 85.85ZM179.232 85.16L179.462 85.39H182.912V87C182.115 87 181.333 87 180.566 87C179.83 87.0307 179.079 87.0613 178.312 87.092C177.576 87.1227 176.81 87.1687 176.012 87.23L175.782 87V82.63H175.552C174.694 84.0713 173.62 85.2367 172.332 86.126C171.044 87.0153 169.404 87.46 167.41 87.46C165.908 87.46 164.712 87.1993 163.822 86.678C162.933 86.126 162.289 85.4053 161.89 84.516C161.492 83.596 161.292 82.584 161.292 81.48V67.68L161.062 67.45H157.612V65.84C158.41 65.84 159.207 65.84 160.004 65.84C160.802 65.8093 161.584 65.7787 162.35 65.748C163.148 65.7173 163.945 65.6713 164.742 65.61L164.972 65.84V80.56C164.972 82.0627 165.218 83.2433 165.708 84.102C166.23 84.9607 167.134 85.39 168.422 85.39C169.71 85.39 170.906 84.9607 172.01 84.102C173.145 83.2127 174.326 81.7253 175.552 79.64V67.68L175.322 67.45H171.872V65.84C172.67 65.84 173.467 65.84 174.264 65.84C175.062 65.8093 175.844 65.7787 176.61 65.748C177.408 65.7173 178.205 65.6713 179.002 65.61L179.232 65.84V85.16ZM190.487 70.394C190.487 71.222 190.793 71.8813 191.407 72.372C192.051 72.832 192.863 73.2307 193.845 73.568C194.857 73.8747 195.915 74.1967 197.019 74.534C198.153 74.8713 199.211 75.3007 200.193 75.822C201.205 76.3127 202.017 76.9873 202.631 77.846C203.275 78.674 203.597 79.778 203.597 81.158C203.597 82.6913 203.198 83.9333 202.401 84.884C201.634 85.804 200.683 86.4633 199.549 86.862C198.445 87.2607 197.371 87.46 196.329 87.46C195.071 87.46 193.937 87.2913 192.925 86.954C191.943 86.6167 191.054 86.172 190.257 85.62L189.567 87H187.819C187.635 85.804 187.405 84.6233 187.129 83.458C186.883 82.262 186.577 81.066 186.209 79.87L187.727 79.41C188.555 81.1273 189.49 82.4613 190.533 83.412C191.575 84.332 192.603 84.976 193.615 85.344C194.627 85.6813 195.501 85.85 196.237 85.85C197.31 85.85 198.261 85.5587 199.089 84.976C199.947 84.3627 200.377 83.4427 200.377 82.216C200.377 81.2653 200.055 80.5293 199.411 80.008C198.797 79.456 197.985 79.0113 196.973 78.674C195.991 78.3367 194.933 78.0147 193.799 77.708C192.695 77.3707 191.637 76.972 190.625 76.512C189.643 76.052 188.831 75.4233 188.187 74.626C187.573 73.798 187.267 72.7247 187.267 71.406C187.267 70.0567 187.635 68.9373 188.371 68.048C189.107 67.1587 190.042 66.4993 191.177 66.07C192.342 65.61 193.569 65.38 194.857 65.38C195.838 65.38 196.743 65.518 197.571 65.794C198.399 66.0393 199.073 66.3767 199.595 66.806L200.055 65.84H201.803C201.956 66.8827 202.14 67.9253 202.355 68.968C202.6 70.0107 202.876 71.0533 203.183 72.096L201.665 72.556C200.99 70.9 200.101 69.566 198.997 68.554C197.923 67.5113 196.528 66.99 194.811 66.99C193.216 66.99 192.097 67.358 191.453 68.094C190.809 68.7993 190.487 69.566 190.487 70.394ZM219.456 85.62C221.081 85.62 222.446 85.252 223.55 84.516C224.685 83.78 225.666 82.9673 226.494 82.078L227.736 83.136C227.092 83.9027 226.356 84.6233 225.528 85.298C224.731 85.942 223.78 86.4633 222.676 86.862C221.603 87.2607 220.299 87.46 218.766 87.46C216.895 87.46 215.147 87.0153 213.522 86.126C211.927 85.2367 210.639 83.964 209.658 82.308C208.677 80.652 208.186 78.6893 208.186 76.42C208.186 74.1507 208.677 72.188 209.658 70.532C210.639 68.876 211.927 67.6033 213.522 66.714C215.147 65.8247 216.895 65.38 218.766 65.38C220.667 65.38 222.293 65.748 223.642 66.484C225.022 67.22 226.08 68.3393 226.816 69.842C227.583 71.3447 227.966 73.2307 227.966 75.5H211.866V73.89H223.55C223.427 71.682 222.983 69.98 222.216 68.784C221.48 67.588 220.253 66.99 218.536 66.99C217.033 66.99 215.807 67.3887 214.856 68.186C213.936 68.9833 213.261 70.1027 212.832 71.544C212.403 72.9547 212.188 74.58 212.188 76.42C212.188 78.2293 212.525 79.824 213.2 81.204C213.875 82.584 214.764 83.6727 215.868 84.47C216.972 85.2367 218.168 85.62 219.456 85.62Z" fill="white"/>
</svg>
